<svg xmlns="http://www.w3.org/2000/svg" viewBox="0 0 661.79 768.67"><defs><style>.cls-1{fill:#fceadd;}.cls-2{fill:#36312b;}.cls-3{fill:#fff;stroke:#36312b;stroke-linecap:round;stroke-linejoin:round;stroke-width:10.01px;}</style></defs><g id="Layer_2" data-name="Layer 2"><g id="Layer_1-2" data-name="Layer 1"><circle class="cls-1" cx="330.9" cy="450.13" r="318.54"/><path class="cls-2" d="M559.34,352.81c0,125.6-102.3,264.37-228.48,264.37S102.38,478.41,102.38,352.81C102.38,97.29,559.34,96.71,559.34,352.81Z"/><path class="cls-3" d="M158.76,458.6s-39.52-42.49-52.45-4,9.31,40.3,19.83,71.88,26.82,41.1,41.51,33.8S158.76,458.6,158.76,458.6Z"/><path class="cls-2" d="M120.64,476.51c1.25-20.07,13.42-21.74,23.08-10,11.43,14.27-5.37,28.84-5.67,29.35-7.39,13.44,3.5,29.72,13.77,31.73-12.47,3.64-32.72-17-21.13-37.12,2.93-3.88,12.63-10.62,5.87-20.39S126.38,466.19,120.64,476.51Z"/><path class="cls-3" d="M503,458.6s39.52-42.49,52.45-4-9.32,40.3-19.83,71.88-26.83,41.1-41.51,33.8S503,458.6,503,458.6Z"/><path class="cls-2" d="M541.08,476.51c-5.74-10.31-9.08-16.35-15.93-6.43-6.61,9.56,2.27,15.6,5.88,20.39,11.56,20.1-8.67,40.76-21.13,37.12a17.29,17.29,0,0,0,10.16-6.6c19-23.57-7.68-26.54-6-44.84C515.57,461.22,539.22,446.82,541.08,476.51Z"/><path class="cls-3" d="M506.81,482.25C506.81,624,428,738.91,330.86,738.91s-176-114.91-176-256.66c0-58.19-62.08-220.08,176-220.08C568.14,262.17,506.81,422.38,506.81,482.25Z"/><path class="cls-2" d="M464.16,434.38c1.08-55.88-53.92-42.19-84.39-46.19-10-1.31-14.31,42.8,11.78,35.87S450.09,401.13,464.16,434.38Z"/><path class="cls-2" d="M372,471.4c8.8-30,51.88-34.15,68.36,0C411.94,456.83,400.51,450.13,372,471.4Z"/><path class="cls-2" d="M419.89,464.27c0-18.83-28.49-18.86-28.49,0S419.89,483.13,419.89,464.27Z"/><path class="cls-2" d="M197.56,434.38c-1.08-55.88,53.92-42.19,84.39-46.19,9.95-1.31,14.3,42.8-11.79,35.87S211.63,401.13,197.56,434.38Z"/><path class="cls-2" d="M289.72,471.4c-8.8-30-51.88-34.15-68.37,0C249.78,456.83,261.21,450.13,289.72,471.4Z"/><path class="cls-2" d="M241.82,464.27c0-18.83,28.49-18.86,28.49,0S241.82,483.13,241.82,464.27Z"/><path class="cls-2" d="M289.72,639.3c34.36,6.88,47.07,7,82.28,0C351.77,660.46,310.19,660.63,289.72,639.3Z"/><path class="cls-2" d="M294.67,533.66c-4.24,7.08-8.94,18.2-2.46,22.16,3.67,2.09,9.58-.17,15.6-.91,23.56-2.61,16.71,23.66,29.45,5.86,8.52-12.64,25.61-1.21,32.23-5,6.58-4,1.72-15.15-2.46-22.15,8.87,7.52,14.57,19.22,6.46,27.05-7.61,7-22.36.36-26.79,3.7-2.44,2-7.34,12.5-15.82,12.64S317.33,566.24,315,564.4c-4.48-3.35-19.13,3.32-26.78-3.7C280.07,552.82,285.91,541.1,294.67,533.66Z"/><path class="cls-3" d="M507.07,335.65c-15.67,5.64-355.07,8.72-394.76,8.72a107.32,107.32,0,0,1,0-214.64c5.4,0-.89-8.33,14.38-40.27C175.7-13.18,316.94-24.64,382,68.15c76.37-44.7,176.23-13.59,212,71.31C721.44,197.86,635.74,391.14,507.07,335.65Z"/><path class="cls-3" d="M505.62,374.44c-110.85-45.29-238.67-45.29-349.52,0a10.44,10.44,0,0,1-14.43-9.64c0-69.06-2.1-70.85,6.26-74.47C326,213.4,520.05,278.25,520.05,299.94,520.05,355.11,524.7,382.24,505.62,374.44Z"/><path class="cls-2" d="M189.12,201C296,248.34,324,174.32,339.44,182.51c21.05,12.6,66.46,79,161,22-15.77,15.6-34.92,27-57,32.2-48,10.72-81.78-15.19-111.53-40.87-.78-.73.3.53,2.57.71,4.79-.06,6.31-2.54,6-2.19C294.26,238.9,236.54,237.27,189.12,201Z"/><path class="cls-2" d="M145.35,189.71c-23.87-22-40.32-60-33-60,5.4,0-.89-8.33,14.38-40.27C119,114.49,119.91,147.37,145.35,189.71Z"/><path class="cls-2" d="M381.66,135.83c2.4-49.55-10-77.84-25-95.48C389.13,67.89,376.42,71,385.88,66,391.42,88,389.79,112.09,381.66,135.83Z"/><path class="cls-2" d="M618.41,154.92c-22.67-8.35-52.72-9.61-92.93,6.65,20.29-16,43.38-25,67-25.59C596.27,143.76,599.3,138.85,618.41,154.92Z"/></g></g></svg>